# xmcd
#
# Track frame offsets: 
#        150
#        18247
#        24820
#        39655
#        66416
#        80789
#        113906
#        127929
#        157896
#
# Disc length: 2288 seconds
#
# Revision: 4
# Processed by: cddbd v1.5.2PL0 Copyright (c) Steve Scherf et al.
# Submitted via: ExactAudioCopy v1.0b3
#
DISCID=6808ee09
DTITLE=すぎやまこういち，マティアス・ムジクム・カルテット - 弦楽四重奏による「ドラゴンクエスト」 [Disc 1]
DYEAR=2005
DGENRE=Game
TTITLE0=序曲
TTITLE1=Love Song 探して
TTITLE2=王城
TTITLE3=遥かなる旅路〜広野を行く〜果てしなき世界
TTITLE4=王宮のロンド
TTITLE5=世界をまわる（街〜ジパング〜ピラミッド〜村）
TTITLE6=鎮魂歌〜ほこら
TTITLE7=戦闘のテーマ〜アレフガルドにて〜勇者の挑戦
TTITLE8=そして伝説へ
EXTD=YEAR: 2005
EXTT0=
EXTT1=
EXTT2=
EXTT3=
EXTT4=
EXTT5=
EXTT6=
EXTT7=
EXTT8=
PLAYORDER=
